<svg xmlns="http://www.w3.org/2000/svg" viewBox="0 0 496 512"><!--!Font Awesome Pro 6.5.1 by @fontawesome - https://fontawesome.com License - https://fontawesome.com/license (Commercial License) Copyright 2024 Fonticons, Inc.--><path d="M305.1 98.7l16.6 49.7-90.6 90.6c-9.4 9.4-9.4 24.6 0 33.9 9.4 9.4 24.6 9.4 33.9 0l90.6-90.6 49.7 16.6c7.4 2.5 15.5 .5 21-5l63.7-63.7c10.8-10.8 6.5-29.2-8-34l-55.7-18.6-18.6-55.7c-4.8-14.5-23.2-18.8-34-8L310 77.7a20.6 20.6 0 0 0 -5 21zm-75.2 96.2l55.1-55.1-2.1-6.4c-11.2-3.2-22.7-5.4-34.9-5.4-70.7 0-128 57.3-128 128s57.3 128 128 128 128-57.3 128-128c0-12.2-2.2-23.7-5.4-34.9l-6.4-2.1-55.1 55.1C301.2 300.6 277 320 248 320c-35.3 0-64-28.7-64-64 0-29 19.5-53.2 45.9-61.1zm254.6-13.8l-35.5 35.5c-5.5 5.5-12.1 9.5-19.2 12.1 1.3 8.9 2.3 18 2.3 27.3 0 101.7-82.3 184-184 184-101.7 0-184-82.3-184-184 0-101.7 82.3-184 184-184 9.4 0 18.6 .9 27.6 2.3 2.6-7 6.2-13.7 11.8-19.2l35.5-35.5A247.8 247.8 0 0 0 248 8C111 8 0 119 0 256s111 248 248 248 248-111 248-248c0-26.1-4.1-51.3-11.6-74.9z"/></svg>