<?xml version="1.0" encoding="utf-8"?>
<!-- Generator: $$$/GeneralStr/196=Adobe Illustrator 27.6.0, SVG Export Plug-In . SVG Version: 6.00 Build 0)  -->
<svg version="1.1" id="Calque_1" xmlns="http://www.w3.org/2000/svg" xmlns:xlink="http://www.w3.org/1999/xlink" x="0px" y="0px"
	 viewBox="0 0 496 512" style="enable-background:new 0 0 496 512;" xml:space="preserve">
<style type="text/css">
	.st0{fill:#FFFFFF;}
</style>
<path class="st0" d="M305.1,98.7l16.6,49.7L231.1,239c-9.4,9.4-9.4,24.6,0,33.9c9.4,9.4,24.6,9.4,33.9,0l90.6-90.6l49.7,16.6
	c7.4,2.5,15.5,0.5,21-5l63.7-63.7c10.8-10.8,6.5-29.2-8-34l-55.7-18.6l-18.6-55.7c-4.8-14.5-23.2-18.8-34-8L310,77.7
	c-5.5,5.5-7.4,13.6-5,21H305.1z M229.9,194.9l55.1-55.1l-2.1-6.4c-11.2-3.2-22.7-5.4-34.9-5.4c-70.7,0-128,57.3-128,128
	s57.3,128,128,128s128-57.3,128-128c0-12.2-2.2-23.7-5.4-34.9l-6.4-2.1l-55.1,55.1C301.2,300.6,277,320,248,320
	c-35.3,0-64-28.7-64-64C184,227,203.5,202.8,229.9,194.9L229.9,194.9z M484.5,181.1L449,216.6c-5.5,5.5-12.1,9.5-19.2,12.1
	c1.3,8.9,2.3,18,2.3,27.3c0,101.7-82.3,184-184,184s-184-82.3-184-184s82.3-184,184-184c9.4,0,18.6,0.9,27.6,2.3
	c2.6-7,6.2-13.7,11.8-19.2L323,19.6C298.7,11.9,273.4,8,248,8C111,8,0,119,0,256s111,248,248,248s248-111,248-248
	c0-26.1-4.1-51.3-11.6-74.9L484.5,181.1z"/>
</svg>
